<svg xmlns="http://www.w3.org/2000/svg" width="48.37" height="42" viewBox="0 0 48.37 42">
  <g id="Grupo_3023" data-name="Grupo 3023" transform="translate(-762 -569)">
    <g id="Componente_72_1" data-name="Componente 72 – 1" transform="translate(762 569)">
      <g id="whatsapp">
        <rect id="Retângulo_2593" data-name="Retângulo 2593" width="48.37" height="42" rx="4" transform="translate(0)" fill="#f5844c"/>
      </g>
    </g>
    <g id="copy" transform="translate(776.435 580.25)">
      <g id="Grupo_2963" data-name="Grupo 2963" transform="translate(0 3.482)">
        <g id="Grupo_2962" data-name="Grupo 2962">
          <path id="Caminho_737" data-name="Caminho 737" d="M13.929,85.333H2.089A2.089,2.089,0,0,0,0,87.422V99.262a2.089,2.089,0,0,0,2.089,2.089H13.929a2.089,2.089,0,0,0,2.089-2.089V87.422A2.089,2.089,0,0,0,13.929,85.333Zm.7,13.929a.7.7,0,0,1-.7.7H2.089a.7.7,0,0,1-.7-.7V87.422a.7.7,0,0,1,.7-.7H13.929a.7.7,0,0,1,.7.7Z" transform="translate(0 -85.333)" fill="#fff"/>
        </g>
      </g>
      <g id="Grupo_2965" data-name="Grupo 2965" transform="translate(2.786)">
        <g id="Grupo_2964" data-name="Grupo 2964">
          <path id="Caminho_738" data-name="Caminho 738" d="M82.892,0H70.356a2.089,2.089,0,0,0-2.089,2.089.7.7,0,1,0,1.393,0,.7.7,0,0,1,.7-.7H82.892a.7.7,0,0,1,.7.7V14.625a.7.7,0,0,1-.7.7.7.7,0,0,0,0,1.393,2.089,2.089,0,0,0,2.089-2.089V2.089A2.089,2.089,0,0,0,82.892,0Z" transform="translate(-68.267)" fill="#fff"/>
        </g>
      </g>
    </g>
  </g>
</svg>
