<svg xmlns="http://www.w3.org/2000/svg" width="48.37" height="42" viewBox="0 0 48.37 42">
  <g id="Grupo_3024" data-name="Grupo 3024" transform="translate(-814 -569)">
    <g id="Componente_73_1" data-name="Componente 73 – 1" transform="translate(814 569)">
      <g id="whatsapp">
        <rect id="Retângulo_2593" data-name="Retângulo 2593" width="48.37" height="42" rx="4" transform="translate(0)" fill="#f5844c"/>
      </g>
    </g>
    <g id="download_1_" data-name="download (1)" transform="translate(827 580)">
      <path id="Caminho_739" data-name="Caminho 739" d="M.677,9.9a.677.677,0,0,1,.677.677v3.383a1.353,1.353,0,0,0,1.353,1.353H18.943A1.353,1.353,0,0,0,20.3,13.959V10.577a.677.677,0,0,1,1.353,0v3.383a2.706,2.706,0,0,1-2.706,2.706H2.706A2.706,2.706,0,0,1,0,13.959V10.577A.677.677,0,0,1,.677,9.9Z" transform="translate(0 3.142)" fill="#fff"/>
      <path id="Caminho_740" data-name="Caminho 740" d="M8.757,15.686a.677.677,0,0,0,.958,0l4.059-4.059a.677.677,0,1,0-.958-.958l-2.9,2.9V1.677a.677.677,0,0,0-1.353,0v11.9l-2.9-2.9a.677.677,0,1,0-.958.958Z" transform="translate(1.588 0)" fill="#fff"/>
    </g>
  </g>
</svg>
