<svg xmlns="http://www.w3.org/2000/svg" width="29" height="29" viewBox="0 0 29 29"><g transform="translate(-15.5 -230)"><circle cx="14" cy="14" r="14" transform="translate(16 230.5)" fill="none" stroke="#442256" stroke-width="1"/><g transform="translate(-520.451 74.549)"><path d="M543.168,171.9h1.457a6.618,6.618,0,0,0,.476,1.151l-1.029,1.03a1.169,1.169,0,0,0,0,1.652l1.1,1.1a1.17,1.17,0,0,0,1.652,0l1.03-1.029a6.6,6.6,0,0,0,1.151.476v1.456a1.169,1.169,0,0,0,1.168,1.168h1.557a1.169,1.169,0,0,0,1.168-1.168v-1.457a6.606,6.606,0,0,0,1.151-.476l1.029,1.03a1.2,1.2,0,0,0,1.652,0l1.1-1.1a1.169,1.169,0,0,0,0-1.652l-1.029-1.03a6.605,6.605,0,0,0,.476-1.151h1.457a1.169,1.169,0,0,0,1.168-1.168v-1.557a1.169,1.169,0,0,0-1.168-1.168h-1.457a6.585,6.585,0,0,0-.476-1.151l1.029-1.029a1.169,1.169,0,0,0,0-1.652l-1.1-1.1a1.2,1.2,0,0,0-1.652,0l-1.029,1.029a6.6,6.6,0,0,0-1.151-.476v-1.457A1.169,1.169,0,0,0,551.73,161h-1.557a1.169,1.169,0,0,0-1.168,1.168v1.457a6.616,6.616,0,0,0-1.151.476l-1.03-1.029a1.169,1.169,0,0,0-1.652,0l-1.1,1.1a1.17,1.17,0,0,0,0,1.652l1.029,1.03a6.61,6.61,0,0,0-.476,1.151h-1.456A1.169,1.169,0,0,0,542,169.173v1.557A1.169,1.169,0,0,0,543.168,171.9Zm-.389-2.724a.39.39,0,0,1,.389-.389h1.751a.389.389,0,0,0,.377-.292,5.835,5.835,0,0,1,.624-1.507.389.389,0,0,0-.06-.473l-1.238-1.238a.39.39,0,0,1,0-.551l1.1-1.1a.39.39,0,0,1,.551,0l1.238,1.238a.388.388,0,0,0,.473.06,5.843,5.843,0,0,1,1.507-.624.389.389,0,0,0,.292-.377v-1.751a.39.39,0,0,1,.389-.389h1.557a.39.39,0,0,1,.389.389v1.751a.389.389,0,0,0,.292.377,5.828,5.828,0,0,1,1.507.624.389.389,0,0,0,.473-.06l1.238-1.238a.4.4,0,0,1,.551,0l1.1,1.1a.391.391,0,0,1,0,.551l-1.238,1.238a.389.389,0,0,0-.06.473,5.845,5.845,0,0,1,.624,1.507.388.388,0,0,0,.376.292h1.751a.39.39,0,0,1,.389.389v1.557a.39.39,0,0,1-.389.389h-1.751a.389.389,0,0,0-.377.292,5.851,5.851,0,0,1-.624,1.507.39.39,0,0,0,.06.473l1.238,1.238a.391.391,0,0,1,0,.551l-1.1,1.1a.4.4,0,0,1-.551,0l-1.238-1.238a.39.39,0,0,0-.473-.06,5.83,5.83,0,0,1-1.507.624.389.389,0,0,0-.292.376v1.751a.39.39,0,0,1-.389.389h-1.557a.39.39,0,0,1-.389-.389v-1.751a.389.389,0,0,0-.292-.377,5.835,5.835,0,0,1-1.507-.624.389.389,0,0,0-.473.06l-1.238,1.238a.391.391,0,0,1-.551,0l-1.1-1.1a.39.39,0,0,1,0-.551l1.238-1.238a.389.389,0,0,0,.06-.473,5.842,5.842,0,0,1-.624-1.507.389.389,0,0,0-.376-.292h-1.751a.39.39,0,0,1-.389-.389Z" fill="#442256"/><path d="M657.5,280.005a3.5,3.5,0,1,0-3.5-3.5A3.507,3.507,0,0,0,657.5,280.005Zm0-6.227a2.724,2.724,0,1,1-2.724,2.724A2.728,2.728,0,0,1,657.5,273.778Z" transform="translate(-106.551 -106.551)" fill="#442256"/></g></g></svg>