<svg id="Componente_85_1" data-name="Componente 85 – 1" xmlns="http://www.w3.org/2000/svg" width="21.211" height="24.002" viewBox="0 0 21.211 24.002">
  <g id="Grupo_2563" data-name="Grupo 2563">
    <path id="Caminho_661" data-name="Caminho 661" d="M20.465,7.691v4.734a6.676,6.676,0,0,0-2.193-.635v-3H12.79V3.308H5.116V20.841h6.1a6.363,6.363,0,0,0,1.349,2.192H5.1a2.189,2.189,0,0,1-2.181-2.192V3.308A2.2,2.2,0,0,1,5.116,1.116h8.771Z" transform="translate(-2.923 -1.116)" fill="#f5844c"/>
    <path id="Caminho_662" data-name="Caminho 662" d="M15.195,11.431a6.635,6.635,0,0,0-3.18,2.193H7.049V11.431Z" transform="translate(-2.664 -0.473)" fill="#f5844c"/>
    <path id="Caminho_663" data-name="Caminho 663" d="M10.525,17.585a.853.853,0,0,0,.011.165H7.049V15.557h3.793A6.492,6.492,0,0,0,10.525,17.585Z" transform="translate(-2.664 -0.216)" fill="#f5844c"/>
  </g>
  <path id="Caminho_664" data-name="Caminho 664" d="M20.1,15l-4.333,4.332-2.361-2.353-.927.927L15.766,21.2l5.26-5.26Zm-3.019-3.669a6.575,6.575,0,1,0,6.576,6.575A6.578,6.578,0,0,0,17.081,11.334Zm0,11.835a5.26,5.26,0,1,1,5.26-5.26A5.258,5.258,0,0,1,17.081,23.169Z" transform="translate(-2.446 -0.482)" fill="#f5844c"/>
</svg>
