<svg xmlns="http://www.w3.org/2000/svg" width="29" height="29" viewBox="0 0 29 29"><g transform="translate(-82.563 -569.333)"><circle cx="14" cy="14" r="14" transform="translate(83.063 569.833)" fill="none" stroke="#442256" stroke-width="1"/><g transform="translate(87.51 577.771)"><rect width="19.266" height="9.47" transform="translate(0 0)" fill="none" stroke="#442256" stroke-miterlimit="10" stroke-width="1"/><line x1="1.095" transform="translate(13.16 6.455)" fill="none" stroke="#442256" stroke-linecap="round" stroke-linejoin="round" stroke-width="1"/><line x1="1.095" transform="translate(0.393 12.773)" fill="none" stroke="#442256" stroke-linecap="round" stroke-linejoin="round" stroke-width="1"/><line x1="1.095" transform="translate(3.921 12.773)" fill="none" stroke="#442256" stroke-linecap="round" stroke-linejoin="round" stroke-width="1"/><line x1="1.095" transform="translate(7.449 12.773)" fill="none" stroke="#442256" stroke-linecap="round" stroke-linejoin="round" stroke-width="1"/><line x1="1.095" transform="translate(10.977 12.773)" fill="none" stroke="#442256" stroke-linecap="round" stroke-linejoin="round" stroke-width="1"/><line x1="1.095" transform="translate(14.505 12.773)" fill="none" stroke="#442256" stroke-linecap="round" stroke-linejoin="round" stroke-width="1"/><line x1="1.095" transform="translate(18.034 12.773)" fill="none" stroke="#442256" stroke-linecap="round" stroke-linejoin="round" stroke-width="1"/><line x1="1.095" transform="translate(13.16 2.863)" fill="none" stroke="#442256" stroke-linecap="round" stroke-linejoin="round" stroke-width="1"/><line x1="2.246" transform="translate(13.65 4.659)" fill="none" stroke="#442256" stroke-linecap="round" stroke-linejoin="round" stroke-width="1"/><line x2="1.095" transform="translate(4.906 2.863)" fill="none" stroke="#442256" stroke-linecap="round" stroke-linejoin="round" stroke-width="1"/><line x2="1.095" transform="translate(4.906 6.455)" fill="none" stroke="#442256" stroke-linecap="round" stroke-linejoin="round" stroke-width="1"/><line x2="2.246" transform="translate(3.265 4.659)" fill="none" stroke="#442256" stroke-linecap="round" stroke-linejoin="round" stroke-width="1"/><line x2="18.867" transform="translate(0.261 10.994)" fill="none" stroke="#442256" stroke-linecap="round" stroke-linejoin="round" stroke-width="1"/><circle cx="2.384" cy="2.384" r="2.384" transform="translate(7.249 2.351)" fill="none" stroke="#442256" stroke-miterlimit="10" stroke-width="1"/><path d="M403.852,159.63a2.384,2.384,0,0,1-2.384,2.384" transform="translate(-401.075 -159.244)" fill="none" stroke="#442256" stroke-miterlimit="10" stroke-width="1"/><path d="M401.468,182.615A2.384,2.384,0,0,1,403.852,185" transform="translate(-401.075 -175.912)" fill="none" stroke="#442256" stroke-miterlimit="10" stroke-width="1"/><path d="M462.331,162.014a2.384,2.384,0,0,1-2.384-2.384" transform="translate(-443.482 -159.244)" fill="none" stroke="#442256" stroke-miterlimit="10" stroke-width="1"/><path d="M460.147,185a2.384,2.384,0,0,1,2.384-2.384" transform="translate(-443.627 -175.912)" fill="none" stroke="#442256" stroke-miterlimit="10" stroke-width="1"/></g></g></svg>