<svg xmlns="http://www.w3.org/2000/svg" width="29" height="29" viewBox="0 0 29 29"><g transform="translate(-15.5 -365)"><circle cx="14" cy="14" r="14" transform="translate(16 365.5)" fill="none" stroke="#442256" stroke-width="1"/><g transform="translate(21.549 371.049)"><path d="M79.53,196.25a.333.333,0,0,1-.064-.007.334.334,0,0,1-.118-.049.315.315,0,0,1-.091-.091.3.3,0,0,1-.03-.057.3.3,0,0,1-.019-.061.311.311,0,0,1-.007-.064.316.316,0,0,1,.007-.064.312.312,0,0,1,.019-.062.319.319,0,0,1,.03-.056.3.3,0,0,1,.041-.05.311.311,0,0,1,.05-.04.329.329,0,0,1,.056-.03.348.348,0,0,1,.062-.019.325.325,0,0,1,.128,0,.346.346,0,0,1,.061.019.331.331,0,0,1,.057.03.313.313,0,0,1,.09.09.32.32,0,0,1,.03.056.354.354,0,0,1,.019.062.337.337,0,0,1,.007.064.332.332,0,0,1-.007.064.337.337,0,0,1-.019.061.3.3,0,0,1-.03.057.325.325,0,0,1-.04.05.31.31,0,0,1-.05.04.33.33,0,0,1-.057.03.325.325,0,0,1-.061.019A.338.338,0,0,1,79.53,196.25Z" transform="translate(-74.196 -183.017)" fill="#442256"/><path d="M101.865,165.07a.313.313,0,0,1-.064-.007.338.338,0,0,1-.061-.019.32.32,0,0,1-.057-.03.326.326,0,0,1-.05-.041.312.312,0,0,1-.041-.05.331.331,0,0,1-.03-.057.3.3,0,0,1-.019-.061.314.314,0,0,1,0-.128.307.307,0,0,1,.019-.062.327.327,0,0,1,.03-.056.324.324,0,0,1,.091-.091.319.319,0,0,1,.057-.03.3.3,0,0,1,.061-.019.325.325,0,0,1,.128,0,.31.31,0,0,1,.061.019.336.336,0,0,1,.056.03.312.312,0,0,1,.05.041.326.326,0,0,1,.041.05.333.333,0,0,1,.049.118.327.327,0,0,1,0,.128.3.3,0,0,1-.019.061.313.313,0,0,1-.03.057.324.324,0,0,1-.091.091.338.338,0,0,1-.056.03.351.351,0,0,1-.061.019A.321.321,0,0,1,101.865,165.07Z" transform="translate(-90.42 -160.368)" fill="#442256"/><path d="M75.982,189.527l0-.01a1.362,1.362,0,0,0-1.846-.681l-2.283.631a1.5,1.5,0,0,0-.927-.913l-.008,0L68.4,187.7a2.588,2.588,0,0,0-2.088-.961,2.621,2.621,0,0,0-2.047,1.227H61.236a.328.328,0,0,0-.328.328v4.131a.328.328,0,0,0,.328.328h1.948a.328.328,0,0,0,.328-.328v-.283h.914a.328.328,0,0,0,.328-.328v-.094a2.326,2.326,0,0,1,1.2.43,19.805,19.805,0,0,0,1.968,1.005l.015.006a2.938,2.938,0,0,0,1.054.2,2.614,2.614,0,0,0,1.086-.232l5.046-1.807.026-.011A1.4,1.4,0,0,0,75.982,189.527ZM62.856,192.1H61.564v-3.476h1.293Zm1.241-.611h-.586v-2.865H64.1Zm10.786-.778-5.044,1.806-.015.005-.013.006a2.124,2.124,0,0,1-1.632.028,19.025,19.025,0,0,1-1.9-.972,2.951,2.951,0,0,0-1.524-.519v-2.639a2.024,2.024,0,0,1,1.562-1.03,1.891,1.891,0,0,1,1.6.754.327.327,0,0,0,.174.138l2.6.884a.735.735,0,0,1,.535.867.639.639,0,0,1-.784.441l-2.936-.93a.328.328,0,0,0-.2.625l2.941.932.009,0a1.294,1.294,0,0,0,1.6-.891c.007-.027.014-.053.02-.08l2.46-.682c.355-.121.822-.165,1.029.313C75.588,190.332,75.029,190.641,74.884,190.71Z" transform="translate(-60.908 -176.585)" fill="#442256"/><path d="M79.941,150.737H77.993a.328.328,0,0,0-.328.328v.283h-.914a.328.328,0,0,0-.328.328v.094a2.324,2.324,0,0,1-1.2-.43,19.8,19.8,0,0,0-1.969-1.005l-.014-.006a2.789,2.789,0,0,0-2.14.034l-1.319.472-1.111-1.111a.327.327,0,0,0-.463,0l-3.649,3.649a.325.325,0,0,0,0,.464l6.236,6.235a.354.354,0,0,0,.464,0l3.331-3.331c.087.007.176.011.27.011a2.62,2.62,0,0,0,2.046-1.227h3.033a.328.328,0,0,0,.328-.328v-4.131A.328.328,0,0,0,79.941,150.737Zm-10.668,3.039a1.451,1.451,0,0,0,.982,1.16l.009,0,.655.222a1.213,1.213,0,1,1-1.646-1.385Zm.655-1.279a1.283,1.283,0,0,0-.534.564,1.868,1.868,0,1,0,2.147,2.312l1.107.375A2.093,2.093,0,0,0,73,157.409l-.748.748a2.083,2.083,0,0,0-2.437,0l-3.334-3.334a2.083,2.083,0,0,0,0-2.438l.748-.748a2.081,2.081,0,0,0,2.438,0l.709.709A1.288,1.288,0,0,0,69.929,152.5Zm3.539,4.44a1.434,1.434,0,0,1-.209-.682,2.554,2.554,0,0,0,.578.313Zm-5.026-6.519.747.747a1.429,1.429,0,0,1-1.494,0ZM66,152.857a1.429,1.429,0,0,1,0,1.494l-.747-.747Zm5.025,6.519-.747-.747a1.426,1.426,0,0,1,1.493,0Zm3.833-3.28a2.4,2.4,0,0,1-.342-.024h0a1.875,1.875,0,0,1-1.214-.664l-.039-.053a.327.327,0,0,0-.181-.15l-2.605-.884a.735.735,0,0,1-.535-.867h0a.639.639,0,0,1,.784-.439l2.936.93a.328.328,0,1,0,.2-.625l-2.335-.74-.02-.021h0L70.3,151.347l1.039-.372.011,0h0l.013-.006A2.124,2.124,0,0,1,73,150.936a19.009,19.009,0,0,1,1.9.972,2.948,2.948,0,0,0,1.524.519v2.639A2.024,2.024,0,0,1,74.861,156.1ZM77.079,152h.586v2.865h-.586Zm2.534,2.865H78.321v-3.476h1.293Z" transform="translate(-63.491 -149.627)" fill="#442256"/></g></g></svg>