<svg xmlns="http://www.w3.org/2000/svg" width="29" height="29" viewBox="0 0 29 29"><g transform="translate(-15.5 -395.5)"><circle cx="14" cy="14" r="14" transform="translate(16 396)" fill="none" stroke="#442256" stroke-width="1"/><path d="M199.1,150.265a4.216,4.216,0,1,0,4.216-4.216,4.221,4.221,0,0,0-4.216,4.216Zm7.665,0a3.449,3.449,0,1,1-3.449-3.449,3.453,3.453,0,0,1,3.449,3.449Zm0,0" transform="translate(-171.709 254.138)" fill="#442256"/><path d="M177.3,187.038a.383.383,0,0,0,.541,0l1.858-1.83a1.158,1.158,0,0,0,.273-1.189l.4-.385a1.142,1.142,0,0,1,.8-.323h5.095a3.43,3.43,0,0,0,2.406-.977c.027-.026-.2.244,3.476-4.152a1.533,1.533,0,0,0-2.333-1.99l-2.261,2.324a1.54,1.54,0,0,0-1.191-.57H182.09a4.942,4.942,0,0,0-1.919-.383,4.742,4.742,0,0,0-4.322,2.451,1.145,1.145,0,0,0-1.025.318L173,182.161a.383.383,0,0,0,0,.541Zm2.867-8.707a4.183,4.183,0,0,1,1.687.351.383.383,0,0,0,.154.032h4.352a.766.766,0,0,1,0,1.533h-3.127a.383.383,0,0,0,0,.767h3.127a1.535,1.535,0,0,0,1.533-1.533,1.514,1.514,0,0,0-.013-.2c2.188-2.249,2.5-2.565,2.509-2.581a.767.767,0,1,1,1.17.99l-3.437,4.109a2.669,2.669,0,0,1-1.858.747h-5.095a1.906,1.906,0,0,0-1.331.537l-.326.314-3-3a3.958,3.958,0,0,1,3.656-2.065Zm-4.8,2.543a.382.382,0,0,1,.474-.054c.066.04-.124-.133,3.319,3.306a.383.383,0,0,1,0,.54l-1.584,1.561-3.766-3.795Zm0,0" transform="translate(-152.699 232.663)" fill="#442256"/><path d="M210.682,152.01v.449a1.15,1.15,0,0,0,.383,2.234.383.383,0,1,1,0,.766.693.693,0,0,1-.5-.29.383.383,0,0,0-.587.493,1.587,1.587,0,0,0,.7.5v.447a.383.383,0,1,0,.767,0v-.449a1.15,1.15,0,0,0-.383-2.234.383.383,0,0,1,0-.767.615.615,0,0,1,.414.2.383.383,0,1,0,.533-.551,1.483,1.483,0,0,0-.564-.353v-.446a.383.383,0,0,0-.767,0Zm0,0" transform="translate(-179.531 250.093)" fill="#442256"/></g></svg>