<svg id="upc" xmlns="http://www.w3.org/2000/svg" width="19" height="19" viewBox="0 0 19 19">
  <path id="upc-2" data-name="upc" d="M3,5.188A1.089,1.089,0,0,1,3.95,4,1.089,1.089,0,0,1,4.9,5.188V21.813A1.089,1.089,0,0,1,3.95,23,1.089,1.089,0,0,1,3,21.813Zm3.8,0A1.089,1.089,0,0,1,7.75,4,1.089,1.089,0,0,1,8.7,5.188V21.813A1.089,1.089,0,0,1,7.75,23a1.089,1.089,0,0,1-.95-1.187Zm3.8,0A1.089,1.089,0,0,1,11.55,4a1.089,1.089,0,0,1,.95,1.188V21.813A1.089,1.089,0,0,1,11.55,23a1.089,1.089,0,0,1-.95-1.187Zm3.8,0A1.089,1.089,0,0,1,15.35,4h1.9a1.089,1.089,0,0,1,.95,1.188V21.813A1.089,1.089,0,0,1,17.25,23h-1.9a1.089,1.089,0,0,1-.95-1.187Zm5.7,0A1.089,1.089,0,0,1,21.05,4,1.089,1.089,0,0,1,22,5.188V21.813A1.089,1.089,0,0,1,21.05,23a1.089,1.089,0,0,1-.95-1.187Z" transform="translate(-3 -4)" fill="#f5844c"/>
</svg>