<svg xmlns="http://www.w3.org/2000/svg" xmlns:xlink="http://www.w3.org/1999/xlink" width="19" height="19" viewBox="0 0 19 19"><defs><style>.a{fill:none;}.b{clip-path:url(#a);}.c,.d{fill:#f5844c;}.d{stroke:#fff;stroke-miterlimit:10;}.e{stroke:none;}</style><clipPath id="a"><rect class="a" width="19" height="19" transform="translate(0 0)"/></clipPath></defs><g transform="translate(-164.464 -591.921)"><g class="b" transform="translate(164.464 591.921)"><g transform="translate(-1.491 -0.986)"><g transform="translate(1.491 0.986)"><path class="c" d="M162.678,573.921h-.02a.756.756,0,0,0-.718.758v.579H161.2a.738.738,0,1,0,0,1.476h.738v1.336H161.2a.737.737,0,0,0-.738.738v2.4a.738.738,0,1,0,1.476,0v-1.666h.738a.745.745,0,0,0,.748-.738v-4.149A.745.745,0,0,0,162.678,573.921Zm-7.95,7.96H153.2a.743.743,0,0,0-.738.738V584.1a.743.743,0,1,0,1.486,0v-.738h.778a.738.738,0,1,0,0-1.476Zm16.687,10.1v.3c0-.05.01-.1.01-.15S171.416,592.035,171.416,591.985Zm-9.675-8.4a.723.723,0,0,0-.529-.229h-2.673v-.718a.75.75,0,0,0-.718-.758.737.737,0,0,0-.768.708v.768h-.369a.736.736,0,0,0-.738.738.745.745,0,0,0,.738.748h3.78v.03Zm-5.935-7.072a.745.745,0,0,0-.748.738.736.736,0,0,0,.738.738.745.745,0,0,0,.748-.738A.736.736,0,0,0,155.805,576.515Zm0,0a.745.745,0,0,0-.748.738.736.736,0,0,0,.738.738.745.745,0,0,0,.748-.738A.736.736,0,0,0,155.805,576.515Zm1.107-2.594h-2.224a2.233,2.233,0,0,0-2.224,2.224v2.214a2.226,2.226,0,0,0,2.224,2.224h2.224a2.218,2.218,0,0,0,2.214-2.224v-2.214A2.224,2.224,0,0,0,156.913,573.921Zm.738,4.439v.01a.722.722,0,0,1-.738.728h-2.224a.737.737,0,0,1-.738-.738v-2.214a.745.745,0,0,1,.738-.748h2.224a.745.745,0,0,1,.738.748Zm-1.845-1.845a.745.745,0,0,0-.748.738.736.736,0,0,0,.738.738.745.745,0,0,0,.748-.738A.736.736,0,0,0,155.805,576.515Zm0,0a.745.745,0,0,0-.748.738.736.736,0,0,0,.738.738.745.745,0,0,0,.748-.738A.736.736,0,0,0,155.805,576.515Zm0,0a.745.745,0,0,0-.748.738.736.736,0,0,0,.738.738.745.745,0,0,0,.748-.738A.736.736,0,0,0,155.805,576.515Zm12.279,0a.736.736,0,0,0-.738.738.7.7,0,0,0,.2.5l1.038-1.037A.7.7,0,0,0,168.084,576.515Zm1.117-2.594h-2.225a2.233,2.233,0,0,0-2.224,2.224v2.214a2.27,2.27,0,0,0,.638,1.566l1.057-1.067a.671.671,0,0,1-.21-.5v-2.214a.745.745,0,0,1,.738-.748H169.2a.678.678,0,0,1,.489.2l1.047-1.057A2.2,2.2,0,0,0,169.2,573.921Zm-1.117,2.594a.736.736,0,0,0-.738.738.7.7,0,0,0,.2.5l1.038-1.037A.7.7,0,0,0,168.084,576.515Zm0,0a.736.736,0,0,0-.738.738.7.7,0,0,0,.2.5l1.038-1.037A.7.7,0,0,0,168.084,576.515ZM155.8,588.8a.736.736,0,0,0-.738.738.7.7,0,0,0,.239.539l1.037-1.047A.762.762,0,0,0,155.8,588.8Zm1.117-2.593h-2.224a2.226,2.226,0,0,0-2.224,2.224v2.214a2.263,2.263,0,0,0,.668,1.6l1.057-1.057a.7.7,0,0,1-.239-.538v-2.214a.745.745,0,0,1,.738-.748h2.224a.722.722,0,0,1,.529.229l1.047-1.047A2.192,2.192,0,0,0,156.913,586.21ZM155.8,588.8a.736.736,0,0,0-.738.738.7.7,0,0,0,.239.539l1.037-1.047A.762.762,0,0,0,155.8,588.8Zm0,0a.736.736,0,0,0-.738.738.7.7,0,0,0,.239.539l1.037-1.047A.762.762,0,0,0,155.8,588.8Z" transform="translate(-152.464 -573.921)"/></g><g transform="translate(1.864 1.344)"><path class="c" d="M172.628,575.732l-1.586,1.6V593.2a1.087,1.087,0,0,0,.947,1.177,1.072,1.072,0,0,0,.948-1.177V576.61A1.114,1.114,0,0,0,172.628,575.732Zm-7.271,7.312V593.2a1.087,1.087,0,0,0,.948,1.177h1.9a1.072,1.072,0,0,0,.947-1.177V579.233Zm-3.79,3.82V593.2a1.087,1.087,0,0,0,.947,1.177,1.072,1.072,0,0,0,.948-1.177v-8.239Zm-3.79,3.81V593.2a1.087,1.087,0,0,0,.948,1.177,1.072,1.072,0,0,0,.947-1.177v-4.429Zm-3.421,3.441a1.033,1.033,0,0,0,.579.259,1.072,1.072,0,0,0,.948-1.177v-.618Z" transform="translate(-154.354 -575.732)"/></g><g class="d" transform="translate(1.414 18.682) rotate(-45)"><rect class="e" width="25.197" height="1.477" rx="0.738"/><rect class="a" x="-0.5" y="-0.5" width="26.197" height="2.477" rx="1.238"/></g></g></g></g></svg>