<svg xmlns="http://www.w3.org/2000/svg" width="61.908" height="48.45" viewBox="0 0 61.908 48.45">
  <g id="upload" transform="translate(0)">
    <path id="Caminho_111" data-name="Caminho 111" d="M170.994,182.808l-11.843,11.817,3.391,3.391,4.753-4.778,1.13-2.852v25.587h5.138V190.412l1.053,2.8,4.83,4.8,3.365-3.365Z" transform="translate(-139.986 -167.524)" fill="#bfbfbf"/>
    <path id="Caminho_112" data-name="Caminho 112" d="M47.707,68.445H47.45a19.19,19.19,0,0,0-37.2,6.5v1.207a10.353,10.353,0,0,0,.206,20.706H23.3V91.719H10.457a5.2,5.2,0,0,1,0-10.4l5.138.128s-.231-5.292-.231-6.5a14.027,14.027,0,0,1,27.719-3.16l.565,2.415,2.415-.437A9.055,9.055,0,1,1,47.707,91.72H38.715v5.138h8.991a14.206,14.206,0,0,0,0-28.413Z" transform="translate(-0.001 -55.883)" fill="#bfbfbf"/>
  </g>
</svg>
