<svg id="Componente_84_1" data-name="Componente 84 – 1" xmlns="http://www.w3.org/2000/svg" width="21.216" height="23.999" viewBox="0 0 21.216 23.999">
  <g id="Grupo_2561" data-name="Grupo 2561">
    <path id="Caminho_657" data-name="Caminho 657" d="M20.469,7.7v4.737a6.675,6.675,0,0,0-2.193-.636v-3H12.792V3.309H5.116V20.855h6.1a6.368,6.368,0,0,0,1.349,2.193H5.1a2.19,2.19,0,0,1-2.182-2.193V3.309A2.2,2.2,0,0,1,5.116,1.116h8.773Z" transform="translate(-2.923 -1.116)" fill="#bfbfbf"/>
    <path id="Caminho_658" data-name="Caminho 658" d="M15.2,11.431a6.637,6.637,0,0,0-3.181,2.193H7.049V11.431Z" transform="translate(-2.663 -0.465)" fill="#bfbfbf"/>
    <path id="Caminho_659" data-name="Caminho 659" d="M10.525,17.585a.853.853,0,0,0,.011.165H7.049V15.557h3.794A6.494,6.494,0,0,0,10.525,17.585Z" transform="translate(-2.663 -0.204)" fill="#bfbfbf"/>
  </g>
  <path id="Caminho_660" data-name="Caminho 660" d="M18.787,15.265l-1.7,1.7-1.7-1.7-.927.927,1.7,1.7-1.7,1.7.927.927,1.7-1.7,1.7,1.7.927-.927-1.7-1.7,1.7-1.7Zm-1.7-3.946A6.576,6.576,0,1,0,23.66,17.9,6.571,6.571,0,0,0,17.082,11.319Zm0,11.838A5.261,5.261,0,1,1,22.344,17.9,5.268,5.268,0,0,1,17.082,23.157Z" transform="translate(-2.444 -0.473)" fill="#bfbfbf"/>
</svg>
