<svg xmlns="http://www.w3.org/2000/svg" width="29" height="29" viewBox="0 0 29 29"><g transform="translate(-269.625 -508.5)"><circle cx="14" cy="14" r="14" transform="translate(270.125 509)" fill="none" stroke="#442256" stroke-width="1"/><g transform="translate(274.314 514.021)"><path d="M290.409,187.2a.383.383,0,0,0,.541,0l1.858-1.83a1.159,1.159,0,0,0,.273-1.19l.4-.385a1.143,1.143,0,0,1,.8-.322h5.095a3.431,3.431,0,0,0,2.406-.977c.027-.026-.2.244,3.476-4.152a1.533,1.533,0,0,0-2.333-1.99l-2.261,2.324a1.54,1.54,0,0,0-1.191-.571H295.2a4.946,4.946,0,0,0-1.919-.383,4.741,4.741,0,0,0-4.322,2.451,1.145,1.145,0,0,0-1.025.317l-1.823,1.829a.383.383,0,0,0,0,.541Zm2.867-8.707a4.187,4.187,0,0,1,1.687.351.383.383,0,0,0,.154.032h4.352a.766.766,0,0,1,0,1.533h-3.127a.383.383,0,0,0,0,.767h3.127A1.535,1.535,0,0,0,301,179.638a1.517,1.517,0,0,0-.013-.2c2.188-2.249,2.5-2.565,2.509-2.581a.767.767,0,1,1,1.17.991l-3.437,4.109a2.669,2.669,0,0,1-1.858.747h-5.095a1.906,1.906,0,0,0-1.331.537l-.326.314-3-3a3.957,3.957,0,0,1,3.656-2.065Zm-4.8,2.543a.382.382,0,0,1,.474-.054c.066.04-.124-.133,3.319,3.306a.384.384,0,0,1,0,.54l-1.584,1.561-3.766-3.795Zm0,0" transform="translate(-285.995 -167.563)" fill="#442256"/><g transform="translate(11.818 0)"><path d="M332.65,159.887h-1.314a2.346,2.346,0,0,0-2.344,2.344v1.549h6v-1.549A2.346,2.346,0,0,0,332.65,159.887Zm1.888,3.438h-5.091v-1.094a1.891,1.891,0,0,1,1.888-1.888h1.314a1.891,1.891,0,0,1,1.888,1.888v1.094Z" transform="translate(-328.992 -156.009)" fill="#442256" stroke="#442256" stroke-linejoin="round" stroke-width="0.3"/><path d="M335.127,149.4a1.812,1.812,0,1,0-1.812-1.812A1.814,1.814,0,0,0,335.127,149.4Zm0-3.169a1.357,1.357,0,1,1-1.357,1.357A1.359,1.359,0,0,1,335.127,146.233Z" transform="translate(-332.127 -145.778)" fill="#442256" stroke="#442256" stroke-linejoin="round" stroke-width="0.3"/></g><g transform="translate(6.271 0)"><path d="M312.471,159.887h-1.314a2.346,2.346,0,0,0-2.344,2.344v1.549h6v-1.549A2.346,2.346,0,0,0,312.471,159.887Zm1.888,3.438h-5.091v-1.094a1.891,1.891,0,0,1,1.888-1.888h1.314a1.891,1.891,0,0,1,1.888,1.888v1.094Z" transform="translate(-308.813 -156.009)" fill="#442256" stroke="#442256" stroke-linejoin="round" stroke-width="0.3"/><path d="M314.949,149.4a1.812,1.812,0,1,0-1.812-1.812A1.815,1.815,0,0,0,314.949,149.4Zm0-3.169a1.357,1.357,0,1,1-1.357,1.357A1.359,1.359,0,0,1,314.949,146.233Z" transform="translate(-311.949 -145.778)" fill="#442256" stroke="#442256" stroke-linejoin="round" stroke-width="0.3"/></g><g transform="translate(0.725 0)"><path d="M292.292,159.887h-1.314a2.346,2.346,0,0,0-2.344,2.344v1.549h6v-1.549A2.346,2.346,0,0,0,292.292,159.887Zm1.888,3.438h-5.091v-1.094a1.89,1.89,0,0,1,1.888-1.888h1.314a1.891,1.891,0,0,1,1.888,1.888v1.094Z" transform="translate(-288.634 -156.009)" fill="#442256" stroke="#442256" stroke-linejoin="round" stroke-width="0.3"/><path d="M294.77,149.4a1.812,1.812,0,1,0-1.812-1.812A1.815,1.815,0,0,0,294.77,149.4Zm0-3.169a1.357,1.357,0,1,1-1.357,1.357A1.359,1.359,0,0,1,294.77,146.233Z" transform="translate(-291.77 -145.778)" fill="#442256" stroke="#442256" stroke-linejoin="round" stroke-width="0.3"/></g></g></g></svg>