<svg xmlns="http://www.w3.org/2000/svg" width="19" height="19" viewBox="0 0 19 19">
  <g id="Tributos" transform="translate(0)">
    <path id="Caminho_855" data-name="Caminho 855" d="M212.108,186.739a1.67,1.67,0,1,0-1.672-1.67A1.673,1.673,0,0,0,212.108,186.739Zm0-2.227a.557.557,0,1,1-.559.557A.558.558,0,0,1,212.108,184.512Z" transform="translate(-202.627 -176.593)" fill="#f5844c"/>
    <path id="Caminho_856" data-name="Caminho 856" d="M.557,10.9h.578v7.544A.557.557,0,0,0,1.691,19H17.309a.557.557,0,0,0,.557-.557V10.9h.578A.557.557,0,0,0,19,10.342V8.487a.557.557,0,0,0-.361-.521L10.057,4.75V3.34h2.686a.557.557,0,0,0,.557-.557V.557A.557.557,0,0,0,12.742,0H9.5a.557.557,0,0,0-.557.557V4.75L.361,7.966A.557.557,0,0,0,0,8.487v1.855a.557.557,0,0,0,.557.557Zm5.021,6.988H4.46v-4.2a.557.557,0,0,1,.557-.557h0a.557.557,0,0,1,.557.557Zm3.344,0V12.929a.557.557,0,0,1,.557-.557h0a.557.557,0,0,1,.557.557v4.958Zm5.617,0H13.422v-4.2a.557.557,0,0,1,.557-.557h0a.557.557,0,0,1,.557.557ZM10.057,1.113h2.129V2.227H10.057ZM1.113,8.873,9.5,5.73l8.387,3.142v.913H12.452a.557.557,0,1,0,0,1.113h4.3v6.988h-1.1v-4.2a1.672,1.672,0,0,0-1.67-1.67h0a1.672,1.672,0,0,0-1.67,1.67v4.2H11.154V12.929a1.672,1.672,0,0,0-1.67-1.67h0a1.672,1.672,0,0,0-1.67,1.67v4.958H6.691v-4.2a1.672,1.672,0,0,0-1.67-1.67h0a1.672,1.672,0,0,0-1.67,1.67v4.2h-1.1V10.9H6.511a.557.557,0,0,0,0-1.113h-5.4Z" fill="#f5844c"/>
  </g>
</svg>