<svg id="Folha" xmlns="http://www.w3.org/2000/svg" width="19" height="15.057" viewBox="0 0 19 15.057">
  <path id="Caminho_867" data-name="Caminho 867" d="M8.65,14.411C6.427,14.411,2,15.669,2,18.175v1.882H15.3V18.175C15.3,15.669,10.873,14.411,8.65,14.411Zm-4.427,3.5A8.369,8.369,0,0,1,8.65,16.562a8.368,8.368,0,0,1,4.427,1.344ZM8.65,12.529a3.569,3.569,0,0,0,3.325-3.764A3.569,3.569,0,0,0,8.65,5,3.569,3.569,0,0,0,5.325,8.764,3.569,3.569,0,0,0,8.65,12.529Zm0-5.378a1.526,1.526,0,0,1,1.425,1.613A1.526,1.526,0,0,1,8.65,10.378,1.526,1.526,0,0,1,7.225,8.764,1.526,1.526,0,0,1,8.65,7.151Zm6.688,7.324a4.661,4.661,0,0,1,1.862,3.7v1.882H21V18.175C21,16,17.675,14.766,15.338,14.475Zm-.988-1.947a3.569,3.569,0,0,0,3.325-3.764A3.569,3.569,0,0,0,14.35,5a2.964,2.964,0,0,0-1.425.376,6.516,6.516,0,0,1,0,6.776A2.964,2.964,0,0,0,14.35,12.529Z" transform="translate(-2 -5)" fill="#f5844c"/>
</svg>