<svg id="qr" xmlns="http://www.w3.org/2000/svg" width="19" height="19" viewBox="0 0 19 19">
  <path id="qr-2" data-name="qr" d="M19,11.688V13.8a.742.742,0,0,1-.742.742H16.18a.742.742,0,1,1,0-1.484h1.336V11.688a.742.742,0,0,1,1.484,0ZM8.758,8.052A.742.742,0,0,0,9.5,7.309V5.64h.742a.742.742,0,0,0,.742-.742V.741A.742.742,0,0,0,10.215,0,.754.754,0,0,0,9.5.759v.576H8.758a.742.742,0,1,0,0,1.484H9.5V4.155H8.758a.742.742,0,0,0-.742.742V7.309A.742.742,0,0,0,8.758,8.052ZM.742,10.946a.742.742,0,0,0,.742-.742V9.462h.779a.742.742,0,1,0,0-1.484H.742A.742.742,0,0,0,0,8.72V10.2A.742.742,0,0,0,.742,10.946ZM11.727,9.462h2v2.209a.754.754,0,0,0,.715.76.742.742,0,0,0,.769-.742v-.742h.779a.742.742,0,0,0,0-1.484h-.779V8.72a.742.742,0,0,0-.742-.742H11.727a.742.742,0,1,0,0,1.484Zm6.531-1.484A.742.742,0,1,0,19,8.72.742.742,0,0,0,18.258,7.977Zm-6.531,2.969a.742.742,0,0,0-.742.742v1.373h-.371a.742.742,0,0,0,0,1.484h1.113a.742.742,0,0,0,.742-.742V11.688A.742.742,0,0,0,11.727,10.946Zm0,6.568h-.742v-.742a.742.742,0,0,0-.742-.742H9.5v-.742a.742.742,0,0,0-1.484,0v1.484a.742.742,0,0,0,.742.742H9.5v.742a.742.742,0,0,0,.742.742h1.484a.742.742,0,1,0,0-1.484ZM14.7,16.03a.742.742,0,0,0-.742-.742h-.371a.742.742,0,1,0,0,1.484h.371A.742.742,0,0,0,14.7,16.03Zm3.563,1.484h-.594v-.742a.742.742,0,1,0-1.484,0v.742H14.7A.742.742,0,1,0,14.7,19h3.563a.742.742,0,1,0,0-1.484Zm-9.5-5.2a.742.742,0,0,0,.742-.742V10.2a.742.742,0,0,0-.742-.742H6.086V8.737a.754.754,0,0,0-.715-.76A.742.742,0,0,0,4.6,8.72v.742H4.23a.742.742,0,0,0,0,1.484H8.016v.631A.742.742,0,0,0,8.758,12.319ZM0,4.452V2.225A2.229,2.229,0,0,1,2.227,0H4.453A2.229,2.229,0,0,1,6.68,2.225V4.452A2.229,2.229,0,0,1,4.453,6.679H2.227A2.229,2.229,0,0,1,0,4.452Zm1.484,0a.743.743,0,0,0,.742.742H4.453A.743.743,0,0,0,5.2,4.452V2.225a.743.743,0,0,0-.742-.742H2.227a.743.743,0,0,0-.742.742ZM3.34,4.081A.742.742,0,1,0,2.6,3.339.742.742,0,0,0,3.34,4.081ZM19,2.225V4.452a2.229,2.229,0,0,1-2.227,2.227H14.547A2.229,2.229,0,0,1,12.32,4.452V2.225A2.229,2.229,0,0,1,14.547,0h2.227A2.229,2.229,0,0,1,19,2.225Zm-1.484,0a.743.743,0,0,0-.742-.742H14.547a.743.743,0,0,0-.742.742V4.452a.743.743,0,0,0,.742.742h2.227a.743.743,0,0,0,.742-.742ZM15.66,2.6a.742.742,0,1,0,.742.742A.742.742,0,0,0,15.66,2.6ZM6.68,14.546v2.227A2.229,2.229,0,0,1,4.453,19H2.227A2.229,2.229,0,0,1,0,16.772V14.546a2.229,2.229,0,0,1,2.227-2.227H4.453A2.229,2.229,0,0,1,6.68,14.546Zm-1.484,0a.743.743,0,0,0-.742-.742H2.227a.743.743,0,0,0-.742.742v2.227a.743.743,0,0,0,.742.742H4.453a.743.743,0,0,0,.742-.742Zm-1.855.371a.742.742,0,1,0,.742.742A.742.742,0,0,0,3.34,14.917Zm0,0" transform="translate(0 0.001)" fill="#f5844c"/>
</svg>