<svg xmlns="http://www.w3.org/2000/svg" width="58.386" height="58.404" viewBox="0 0 58.386 58.404"><defs><style>.a{fill:#fff;}</style></defs><g transform="translate(-36.808 -270.006)"><g transform="translate(36.307 270.006)"><path class="a" d="M287.562,151.957a1.14,1.14,0,1,0,1.14,1.141A1.141,1.141,0,0,0,287.562,151.957Zm0,0" transform="translate(-253.305 -134.623)"/><path class="a" d="M220.672,332.141a1.141,1.141,0,1,0-1.613,0A1.142,1.142,0,0,0,220.672,332.141Zm0,0" transform="translate(-193.33 -292.529)"/><path class="a" d="M13.637,246.167a1.14,1.14,0,0,0,1.609.009l5.529-5.447a3.446,3.446,0,0,0,.812-3.539l1.189-1.147a3.4,3.4,0,0,1,2.375-.959h15.16a10.21,10.21,0,0,0,7.159-2.908c.079-.077-.6.725,10.343-12.355a4.562,4.562,0,0,0-6.941-5.921l-6.729,6.916a4.583,4.583,0,0,0-3.546-1.7H27.879a14.713,14.713,0,0,0-5.711-1.14,14.108,14.108,0,0,0-12.86,7.292,3.407,3.407,0,0,0-3.05.945L.834,231.656a1.14,1.14,0,0,0,0,1.608Zm8.532-25.908a12.45,12.45,0,0,1,5.02,1.045,1.137,1.137,0,0,0,.457.1H40.6a2.281,2.281,0,1,1,0,4.562h-9.3a1.14,1.14,0,1,0,0,2.28h9.3a4.555,4.555,0,0,0,4.521-5.158c6.51-6.691,7.428-7.632,7.467-7.678a2.281,2.281,0,1,1,3.483,2.947L45.838,230.58a7.941,7.941,0,0,1-5.528,2.223H25.151a5.67,5.67,0,0,0-3.959,1.6l-.969.935L11.289,226.4c2.088-3.917,6.006-6.145,10.88-6.145Zm-14.3,7.568a1.138,1.138,0,0,1,1.412-.16c.174.106,9.928,9.884,9.988,9.965a1.145,1.145,0,0,1-.1,1.479l-4.713,4.643L3.25,232.463Zm0,0" transform="translate(0 -188.1)"/><path class="a" d="M129.886,24.176h27.37a3.425,3.425,0,0,0,3.421-3.421V3.421A3.425,3.425,0,0,0,157.256,0h-27.37a3.425,3.425,0,0,0-3.421,3.421V20.755A3.425,3.425,0,0,0,129.886,24.176ZM158.4,9.123h-29.65V6.842H158.4ZM157.256,21.9h-27.37a1.142,1.142,0,0,1-1.14-1.141V11.4H158.4v9.351A1.142,1.142,0,0,1,157.256,21.9ZM129.886,2.281h27.37a1.142,1.142,0,0,1,1.14,1.14v1.14h-29.65V3.421a1.142,1.142,0,0,1,1.14-1.14Zm0,0" transform="translate(-111.595)"/><path class="a" d="M332.112,151.957h-4.562a1.14,1.14,0,0,0,0,2.281h4.562a1.14,1.14,0,1,0,0-2.281Zm0,0" transform="translate(-288.732 -134.623)"/></g></g></svg>