<svg xmlns="http://www.w3.org/2000/svg" width="50.97" height="56.431" viewBox="0 0 50.97 56.431"><defs><style>.a{fill:#cecece;}</style></defs><g transform="translate(0 0)"><path class="a" d="M1.82,5.461H29.126v6.371a.909.909,0,0,0,.91.91h6.371v7.281h1.82V11.832a.909.909,0,0,0-.268-.644L30.681,3.909a.909.909,0,0,0-.645-.268H5.461V1.82H40.048V21.844h1.82V.91a.909.909,0,0,0-.91-.91H4.551a.909.909,0,0,0-.91.91V3.641H.91a.909.909,0,0,0-.91.91v50.97a.909.909,0,0,0,.91.91H31.856v-1.82H1.82ZM30.946,6.748l4.174,4.174H30.946Zm0,0"/><path class="a" d="M234.4,197.589h-1.371a13.616,13.616,0,0,1-10.488-4.911l-.184-.221a.94.94,0,0,0-1.4,0l-.184.22a13.617,13.617,0,0,1-10.489,4.912H208.91a.909.909,0,0,0-.91.91V213.24a10.034,10.034,0,0,0,5.045,8.693l8.156,4.661a.91.91,0,0,0,.9,0l8.156-4.661a10.034,10.034,0,0,0,5.045-8.693V198.5A.909.909,0,0,0,234.4,197.589Zm-.91,15.651a8.206,8.206,0,0,1-4.128,7.112l-7.7,4.4-7.7-4.4a8.21,8.21,0,0,1-4.128-7.113V199.41h.46a15.429,15.429,0,0,0,11.372-4.98,15.428,15.428,0,0,0,11.372,4.98h.46Zm0,0" transform="translate(-184.335 -170.284)"/><path class="a" d="M250.012,264a10.012,10.012,0,1,0,10.012,10.012A10.024,10.024,0,0,0,250.012,264Zm0,18.2a8.192,8.192,0,1,1,8.192-8.192A8.2,8.2,0,0,1,250.012,282.2Zm0,0" transform="translate(-212.695 -233.964)"/><path class="a" d="M301.284,317.345l-1.653-1.653-1.287,1.287,2.731,2.731a.908.908,0,0,0,.644.267.927.927,0,0,0,.222-.027.913.913,0,0,0,.65-.622l2.731-9.1-1.744-.523Zm0,0" transform="translate(-264.401 -274.467)"/><path class="a" d="M32,128H55.665v1.82H32Zm0,0" transform="translate(-28.359 -113.437)"/><path class="a" d="M32,160H55.665v1.82H32Zm0,0" transform="translate(-28.359 -141.796)"/><path class="a" d="M32,192H55.665v1.82H32Zm0,0" transform="translate(-28.359 -170.156)"/><path class="a" d="M32,224H50.2v1.82H32Zm0,0" transform="translate(-28.359 -198.515)"/><path class="a" d="M32,256H50.2v1.82H32Zm0,0" transform="translate(-28.359 -226.874)"/><path class="a" d="M32,288H50.2v1.82H32Zm0,0" transform="translate(-28.359 -255.234)"/><path class="a" d="M32,384H50.2v1.82H32Zm0,0" transform="translate(-28.359 -340.311)"/><path class="a" d="M32,416H50.2v1.82H32Zm0,0" transform="translate(-28.359 -368.671)"/><path class="a" d="M32,448H50.2v1.82H32Zm0,0" transform="translate(-28.359 -397.03)"/><path class="a" d="M40,64h1.82v1.82H40Zm0,0" transform="translate(-35.449 -56.719)"/><path class="a" d="M72,64h1.82v1.82H72Zm0,0" transform="translate(-63.808 -56.719)"/><path class="a" d="M104,64h1.82v1.82H104Zm0,0" transform="translate(-92.168 -56.719)"/><path class="a" d="M136,64h11.832v1.82H136Zm0,0" transform="translate(-120.527 -56.719)"/></g></svg>