<svg xmlns="http://www.w3.org/2000/svg" width="19.2" height="19.2" viewBox="0 0 19.2 19.2">
  <g id="Fornecedor" transform="translate(0.1 0.1)">
    <g id="Grupo_3009" data-name="Grupo 3009" transform="translate(0 -7.085)">
      <path id="Caminho_861" data-name="Caminho 861" d="M101.382,306.713a2.958,2.958,0,0,0-2.317-1.423A2.911,2.911,0,0,0,96.7,306.4l-2.842.988-.01,0a1.714,1.714,0,0,0-1.049,1.058l-2.585-.732a1.53,1.53,0,0,0-2.091.789l0,.011a1.63,1.63,0,0,0,.947,2.068l.03.013,5.715,2.094a2.9,2.9,0,0,0,1.229.27,3.264,3.264,0,0,0,1.194-.231l.016-.007a22.293,22.293,0,0,0,2.23-1.165,2.591,2.591,0,0,1,1.355-.5v.109a.375.375,0,0,0,.371.38h1.035v.328a.375.375,0,0,0,.371.38h1.128v-5.548Zm-.548,3.59a3.291,3.291,0,0,0-1.726.6,21.357,21.357,0,0,1-2.155,1.126A2.352,2.352,0,0,1,95.1,312l-.015-.006-.017-.006-5.712-2.093c-.164-.081-.8-.439-.554-1.089.235-.555.763-.5,1.166-.363l2.787.79c.006.031.014.061.023.092a1.483,1.483,0,0,0,.7.9,1.427,1.427,0,0,0,1.114.133l.011,0,3.331-1.08a.382.382,0,0,0,.242-.477.369.369,0,0,0-.466-.247l-3.325,1.078a.705.705,0,0,1-.545-.067.732.732,0,0,1-.344-.444.854.854,0,0,1,.606-1.005l2.949-1.025a.373.373,0,0,0,.2-.161,2.131,2.131,0,0,1,1.817-.874,2.291,2.291,0,0,1,1.769,1.194Z" transform="translate(-84.74 -286.879)" fill="#f5844c" stroke="#f5844c" stroke-miterlimit="10" stroke-width="0.2"/>
      <path id="Caminho_862" data-name="Caminho 862" d="M16.631,11.537,12.393,7.2a.375.375,0,0,0-.538,0L10.564,8.52,9.032,7.959a3.169,3.169,0,0,0-2.485-.04l-.017.007a22.856,22.856,0,0,0-2.286,1.2,2.66,2.66,0,0,1-1.39.51V9.52a.385.385,0,0,0-.381-.39H1.411V8.794A.385.385,0,0,0,1.03,8.4H0v5.691H2.29a3.033,3.033,0,0,0,2.377,1.459c.108,0,.212-.005.313-.014L8.85,19.5a.4.4,0,0,0,.539,0l7.243-7.413A.392.392,0,0,0,16.631,11.537ZM12.124,8.026l.868.888a1.628,1.628,0,0,1-1.735,0ZM6.286,15.775l-.428-.438a2.938,2.938,0,0,0,.671-.372A1.731,1.731,0,0,1,6.286,15.775Zm.236-1.882-.046.063a2.171,2.171,0,0,1-1.41.79h0a2.706,2.706,0,0,1-.4.029A2.349,2.349,0,0,1,2.853,13.55V10.412A3.375,3.375,0,0,0,4.623,9.8a21.829,21.829,0,0,1,2.21-1.155,2.416,2.416,0,0,1,1.9.033l.015.007,0,0,.013.005,1.207.442-1.4,1.437h0l-.024.024-2.712.88a.392.392,0,0,0-.248.489.379.379,0,0,0,.478.254l3.41-1.106a.719.719,0,0,1,.559.069.75.75,0,0,1,.352.454h0a.876.876,0,0,1-.621,1.031L6.731,13.715A.382.382,0,0,0,6.522,13.893Zm4.637-1.876a1.407,1.407,0,0,1,.459.314,1.467,1.467,0,0,1,0,2.039,1.387,1.387,0,0,1-1.992,0,1.443,1.443,0,0,1-.379-.705l.761-.265.01,0A1.715,1.715,0,0,0,11.158,12.017ZM9.119,18.674l-.867-.888a1.624,1.624,0,0,1,1.734,0Zm5.289-5.413-3.873,3.964a2.374,2.374,0,0,0-2.831,0l-.869-.889a2.533,2.533,0,0,0,.4-1.975l1.285-.446a2.225,2.225,0,0,0,.564,1.005,2.137,2.137,0,0,0,3.069,0,2.26,2.26,0,0,0,0-3.14,2.156,2.156,0,0,0-1.139-.613,1.51,1.51,0,0,0-.62-.67,1.471,1.471,0,0,0-.512-.179l.823-.843a2.375,2.375,0,0,0,2.832,0l.869.889a2.522,2.522,0,0,0,0,2.9Zm.548-.561a1.73,1.73,0,0,1,0-1.776l.867.888Z" fill="#f5844c" stroke="#f5844c" stroke-miterlimit="10" stroke-width="0.2"/>
    </g>
  </g>
</svg>