<svg xmlns="http://www.w3.org/2000/svg" width="48.37" height="42" viewBox="0 0 48.37 42">
  <g id="Grupo_3021" data-name="Grupo 3021" transform="translate(-656 -569)">
    <g id="Componente_70_1" data-name="Componente 70 – 1" transform="translate(656 569)">
      <rect id="Retângulo_2593" data-name="Retângulo 2593" width="48.37" height="42" rx="4" fill="#1bd741"/>
    </g>
    <g id="Grupo_2959" data-name="Grupo 2959" transform="translate(669.714 578.862)">
      <path id="Caminho_732" data-name="Caminho 732" d="M68.494,90.6l1.558-5.535a11.107,11.107,0,1,1,4.15,4.066Zm6-3.491.34.208a9.225,9.225,0,1,0-2.97-2.9l.229.357-.9,3.188Z" transform="translate(-68.494 -68.321)" fill="#fff"/>
      <path id="Caminho_733" data-name="Caminho 733" d="M150.095,152.866l-.721-.039a.872.872,0,0,0-.62.212,3.285,3.285,0,0,0-1.08,1.655,5.017,5.017,0,0,0,1.164,3.933,11.7,11.7,0,0,0,6.306,4.584,3.073,3.073,0,0,0,2.6-.322,2.327,2.327,0,0,0,1.013-1.478l.115-.538a.374.374,0,0,0-.209-.418l-2.437-1.123a.374.374,0,0,0-.452.111l-.957,1.24a.274.274,0,0,1-.308.092,7.492,7.492,0,0,1-4.054-3.469.277.277,0,0,1,.035-.309l.914-1.058a.373.373,0,0,0,.061-.391l-1.05-2.458A.374.374,0,0,0,150.095,152.866Z" transform="translate(-142.075 -146.926)" fill="#fff"/>
    </g>
  </g>
</svg>
